<svg width="29" height="29" viewBox="0 0 29 29" fill="none" xmlns="http://www.w3.org/2000/svg">
<path d="M14.35 27.5041C16.0781 27.5089 17.79 27.1708 19.3866 26.5094C20.9831 25.848 22.4326 24.8765 23.6512 23.6512C23.8754 23.4269 24.0013 23.1228 24.0013 22.8057C24.0013 22.4886 23.8754 22.1845 23.6512 21.9603L16.0409 14.35L23.6512 6.73969C23.8754 6.51543 24.0013 6.21132 24.0013 5.89423C24.0013 5.57714 23.8754 5.27303 23.6512 5.04878C22.1216 3.5191 20.2383 2.39026 18.1682 1.76228C16.0982 1.13429 13.9051 1.02652 11.7835 1.44853C9.66177 1.87054 7.67691 2.8093 6.0047 4.18164C4.33248 5.55399 3.02453 7.31756 2.1967 9.31614C1.36887 11.3147 1.04672 13.4866 1.25878 15.6395C1.47084 17.7923 2.21056 19.8596 3.41243 21.6582C4.6143 23.4569 6.24121 24.9314 8.14905 25.9511C10.0569 26.9708 12.1868 27.5042 14.35 27.5041ZM14.35 3.58747C16.7925 3.58044 19.1636 4.41062 21.0682 5.93967L13.5046 13.5045C13.2804 13.7288 13.1544 14.0329 13.1544 14.35C13.1544 14.6671 13.2804 14.9712 13.5046 15.1954L21.0682 22.7603C19.7249 23.8329 18.1442 24.5681 16.4584 24.9045C14.7726 25.2408 13.0308 25.1684 11.3787 24.6934C9.7266 24.2184 8.21233 23.3546 6.96262 22.1742C5.71292 20.9938 4.76413 19.5313 4.19567 17.909C3.62721 16.2867 3.45562 14.5518 3.69526 12.8496C3.93491 11.1474 4.57881 9.52731 5.57307 8.12501C6.56734 6.72271 7.88305 5.57897 9.41007 4.78953C10.9371 4.00008 12.631 3.58789 14.35 3.58747ZM27.5042 14.35C27.5042 14.823 27.3639 15.2854 27.1011 15.6787C26.8383 16.072 26.4648 16.3786 26.0278 16.5596C25.5907 16.7406 25.1099 16.788 24.6459 16.6957C24.182 16.6034 23.7558 16.3756 23.4213 16.0411C23.0869 15.7067 22.8591 15.2805 22.7668 14.8166C22.6745 14.3526 22.7219 13.8717 22.9029 13.4347C23.0839 12.9977 23.3905 12.6242 23.7838 12.3614C24.1771 12.0986 24.6395 11.9583 25.1125 11.9583C25.7468 11.9583 26.3551 12.2103 26.8037 12.6588C27.2522 13.1073 27.5042 13.7157 27.5042 14.35ZM9.56667 8.3708C9.56667 7.89777 9.70694 7.43537 9.96974 7.04206C10.2325 6.64876 10.6061 6.34221 11.0431 6.16119C11.4801 5.98017 11.961 5.93281 12.4249 6.02509C12.8889 6.11737 13.315 6.34516 13.6495 6.67964C13.984 7.01412 14.2118 7.44027 14.3041 7.90421C14.3963 8.36815 14.349 8.84903 14.168 9.28605C13.9869 9.72307 13.6804 10.0966 13.2871 10.3594C12.8938 10.6222 12.4314 10.7625 11.9583 10.7625C11.324 10.7625 10.7157 10.5105 10.2672 10.062C9.81865 9.61344 9.56667 9.00511 9.56667 8.3708Z" fill="white"/>
</svg>
