<svg width="16" height="16" viewBox="0 0 16 16" fill="none" xmlns="http://www.w3.org/2000/svg">
<g opacity="0.5">
<path d="M10.3365 1.34656H5.66386C5.44524 1.34593 5.22866 1.38853 5.02656 1.4719C4.82446 1.55527 4.64084 1.67777 4.48625 1.83235C4.33167 1.98694 4.20917 2.17056 4.1258 2.37266C4.04243 2.57476 3.99983 2.79135 4.00046 3.00996V12.9904C4.00046 13.9128 4.75655 14.6538 5.66386 14.6538H10.3365C10.5551 14.6544 10.7717 14.6118 10.9738 14.5284C11.1759 14.4451 11.3595 14.3226 11.5141 14.168C11.6687 14.0134 11.7912 13.8298 11.8746 13.6277C11.9579 13.4256 12.0005 13.209 11.9999 12.9904V3.00996C12.0005 2.79135 11.9579 2.57476 11.8746 2.37266C11.7912 2.17056 11.6687 1.98694 11.5141 1.83235C11.3595 1.67777 11.1759 1.55527 10.9738 1.4719C10.7717 1.38853 10.5551 1.34593 10.3365 1.34656ZM8.00774 13.5801C7.58433 13.5801 7.25165 13.2474 7.25165 12.824C7.25165 12.4006 7.58433 12.0679 8.00774 12.0679C8.43115 12.0679 8.76383 12.4006 8.76383 12.824C8.76383 13.2474 8.43115 13.5801 8.00774 13.5801ZM11.2438 11.2665H4.75655V3.56947H11.2438V11.2665Z" fill="#343A3F"/>
</g>
</svg>
