<svg width="16" height="24" viewBox="0 0 16 24" fill="none" xmlns="http://www.w3.org/2000/svg">
<path d="M13.9693 0H2.03067C1.41835 0 0.923401 0.495781 0.923401 1.10727V22.8923C0.923401 23.5042 1.41879 24 2.03067 24H13.9692C14.5807 24 15.0766 23.5042 15.0766 22.8923V1.10727C15.0769 0.495386 14.5808 0 13.9693 0ZM6.77661 1.30677H9.22251C9.35036 1.30677 9.45344 1.4099 9.45344 1.5377C9.45344 1.6655 9.35036 1.76863 9.22251 1.76863H6.77661C6.64964 1.76863 6.54568 1.6655 6.54568 1.5377C6.54568 1.4099 6.64964 1.30677 6.77661 1.30677ZM9.47693 22.0302H6.52263C6.28039 22.0302 6.08382 21.834 6.08382 21.5918C6.08382 21.3496 6.28039 21.1534 6.52263 21.1534H9.47689C9.71908 21.1534 9.91482 21.3496 9.91482 21.5918C9.91486 21.8341 9.71956 22.0302 9.47693 22.0302ZM13.6926 19.446H2.30731V3.7535H13.6926V19.446Z" fill="#4888FF" fill-opacity="0.5"/>
</svg>
