<svg width="20" height="20" viewBox="0 0 20 20" fill="none" xmlns="http://www.w3.org/2000/svg">
<g clip-path="url(#clip0_4_1100)">
<path d="M19.6082 1.63862C19.45 1.49378 19.256 1.39369 19.0462 1.34862C18.8365 1.30355 18.6185 1.31514 18.4147 1.38218L0.829223 7.17909C0.349965 7.33706 0.0249649 7.76487 0.001254 8.2689C-0.0224179 8.77296 0.260981 9.2294 0.723246 9.43171L5.07227 11.3345L6.38442 17.4203C6.43891 17.6731 6.56723 17.8983 6.83907 17.9675C7.11403 18.0376 7.30828 17.8873 7.51344 17.7337L10.7408 15.3171L14.5138 18.4046C14.7336 18.5845 15.0022 18.6783 15.276 18.6783C15.4087 18.6782 15.5405 18.6563 15.6661 18.6136C16.0632 18.4789 16.3576 18.1548 16.4536 17.7467L19.9679 2.80519C20.0169 2.59632 20.0094 2.37818 19.9462 2.17316C19.883 1.96815 19.7663 1.78365 19.6082 1.63862ZM7.79457 12.4249C7.79243 12.43 7.79032 12.4357 7.78832 12.4426L7.06082 14.9843L6.24895 11.2189L11.8316 8.1171L7.92848 12.1983C7.86727 12.2627 7.82148 12.3402 7.79457 12.4249ZM8.02547 15.8829L8.3559 14.7284L8.67196 13.6241L9.80442 14.5508L8.02547 15.8829ZM18.8244 2.5362L15.3102 17.4777C15.3084 17.4851 15.3061 17.4953 15.2889 17.5012C15.2718 17.5069 15.2636 17.5003 15.2577 17.4955L11.1291 14.1171L11.1288 14.1168L9.21598 12.5515L15.3614 6.12577C15.4585 6.02421 15.516 5.8912 15.5234 5.75087C15.5309 5.61054 15.4877 5.4722 15.4018 5.36097C15.316 5.24972 15.1931 5.17295 15.0554 5.14461C14.9178 5.11626 14.7745 5.13821 14.6517 5.20648L5.55203 10.2623L1.19411 8.35554C1.18082 8.34976 1.17352 8.34651 1.17457 8.32405C1.17563 8.30167 1.18321 8.29913 1.19696 8.2946L18.7824 2.49773C18.7909 2.49495 18.8005 2.49175 18.8147 2.50464C18.8288 2.51761 18.8265 2.52745 18.8244 2.5362Z" fill="#343A3F"/>
</g>
<defs>
<clipPath id="clip0_4_1100">
<rect width="20" height="20" fill="white"/>
</clipPath>
</defs>
</svg>
