<svg width="20" height="20" viewBox="0 0 20 20" fill="none" xmlns="http://www.w3.org/2000/svg">
<g clip-path="url(#clip0_4_1095)">
<path fill-rule="evenodd" clip-rule="evenodd" d="M16.7747 2.72484C15.0205 0.968642 12.6877 0.00102539 10.2023 0C5.08112 0 0.913171 4.16783 0.911121 9.29042C0.910417 10.928 1.33818 12.5265 2.15129 13.9355L0.833191 18.75L5.75861 17.4579C7.11576 18.1983 8.64368 18.5884 10.1985 18.5889H10.2025C15.3231 18.5889 19.4915 14.4207 19.4934 9.29786C19.4945 6.81518 18.529 4.48096 16.7747 2.72484ZM10.2023 17.0197H10.1991C8.81348 17.0191 7.45449 16.6468 6.26864 15.9433L5.9868 15.7759L3.06397 16.5426L3.84409 13.6929L3.6604 13.4008C2.88737 12.1712 2.47915 10.7501 2.47985 9.29097C2.48146 5.0332 5.94582 1.5692 10.2054 1.5692C12.2681 1.56987 14.2071 2.37416 15.665 3.83385C17.123 5.29353 17.9255 7.23378 17.9248 9.29727C17.923 13.5554 14.4589 17.0197 10.2023 17.0197ZM14.4382 11.236C14.2062 11.1197 13.0647 10.5583 12.8518 10.4807C12.6392 10.4032 12.4843 10.3646 12.3297 10.597C12.1748 10.8293 11.73 11.3523 11.5945 11.5071C11.459 11.6621 11.3237 11.6815 11.0915 11.5653C10.8593 11.4491 10.1113 11.2039 9.22454 10.413C8.53446 9.79737 8.06858 9.03714 7.93308 8.80485C7.79782 8.57229 7.93191 8.45877 8.03492 8.33103C8.28622 8.01896 8.53788 7.69177 8.61526 7.53694C8.69272 7.38196 8.65393 7.24637 8.5958 7.13021C8.53788 7.01405 8.07362 5.87135 7.8802 5.40638C7.69162 4.95389 7.50037 5.01498 7.35778 5.00792C7.22251 5.00115 7.06768 4.99977 6.91285 4.99977C6.7581 4.99977 6.50656 5.05778 6.29372 5.29034C6.08096 5.52278 5.48131 6.08434 5.48131 7.22704C5.48131 8.36973 6.31317 9.47361 6.42921 9.62856C6.54523 9.78354 8.06629 12.1284 10.395 13.1339C10.9489 13.3733 11.3813 13.516 11.7186 13.623C12.2747 13.7997 12.7807 13.7748 13.1808 13.715C13.6268 13.6483 14.5542 13.1534 14.7478 12.6111C14.9412 12.0688 14.9412 11.604 14.8831 11.5071C14.8252 11.4103 14.6703 11.3523 14.4382 11.236Z" fill="#343A3F"/>
</g>
<defs>
<clipPath id="clip0_4_1095">
<rect width="20" height="20" fill="white"/>
</clipPath>
</defs>
</svg>
